<?xml version="1.0"?>
<svg xmlns="http://www.w3.org/2000/svg" viewBox="0 0 64 64" width="512" height="512"><g id="_10-Brain" data-name="10-Brain"><path d="M40,56c-1-2-4-4-4-4a2.938,2.938,0,0,0,3-3l.11-.02A4.643,4.643,0,0,0,44,53a3.732,3.732,0,0,0,1-.13V53l1.83,3.66A1.618,1.618,0,0,1,45.38,59H45C42,59,41,58,40,56Z" style="fill:#f77172"/><path d="M44,53a4.643,4.643,0,0,1-4.89-4.02q-.03-.195-.06-.36a4.762,4.762,0,0,0,1.89.38H43.2a5.98,5.98,0,0,1,3.3,1,3.768,3.768,0,0,0,.48.28A2.916,2.916,0,0,1,45,52.87,3.732,3.732,0,0,1,44,53Z" style="fill:#ff999c"/><path d="M46.98,50.28A3.768,3.768,0,0,1,46.5,50a5.98,5.98,0,0,0-3.3-1H40.94a4.958,4.958,0,0,1-3.49-1.45A4.9,4.9,0,0,1,36,44.06,5.371,5.371,0,0,1,36.11,43H46.6c.14,0,.27.01.4.02l.39.06,3.11.62a4.009,4.009,0,0,1,2.42,1.53L55,48l.22.05A6.92,6.92,0,0,1,51,51H49.8A5.883,5.883,0,0,1,46.98,50.28Z" style="fill:#ffb5b8"/><path d="M31.21,26.19,33,25h.05a2.734,2.734,0,0,0-.05.5,2.5,2.5,0,0,0,.73,1.77,2.2,2.2,0,0,0,.23.2A2.994,2.994,0,0,1,31,30H29.52A2.7,2.7,0,0,0,30,28.46,2.754,2.754,0,0,1,31.21,26.19Z" style="fill:#ffa6a9"/><path d="M31,14v3.84a1.16,1.16,0,0,1-2.26.37l-.34-1.02a1.745,1.745,0,0,0-3.4.55v.14a2.121,2.121,0,0,1-3.62,1.5L20,18a7.827,7.827,0,0,1,2.14-3.86A8.032,8.032,0,0,1,28,12h3.93A2.977,2.977,0,0,0,31,14Z" style="fill:#ffa6a9"/><path d="M15,45.88l.26,1.01L15,47H11.12A1.816,1.816,0,0,1,9.5,46a1.816,1.816,0,0,0-1.62-1,3.64,3.64,0,0,1-2.97-1.53L2.12,39.56A5.942,5.942,0,0,1,1,36.08V35a2.006,2.006,0,0,1,2-2H5a2.006,2.006,0,0,1,2-2,2.015,2.015,0,0,1,2,2v2a2.006,2.006,0,0,0,2,2h2l.03.02a4.827,4.827,0,0,0,.38,6.39l.97.97a2.087,2.087,0,0,1,.46.69A2.206,2.206,0,0,1,15,45.88Z" style="fill:#ffa6a9"/><path d="M30.05,23.57A4.018,4.018,0,0,1,32.11,23H35v.05A2.5,2.5,0,0,0,33.05,25H33l-1.79,1.19A2.754,2.754,0,0,0,30,28.46,2.7,2.7,0,0,1,29.52,30a2.645,2.645,0,0,1-.84.79L25,33a1.993,1.993,0,0,1-.74,1.4l-.32.26L25,35.99l1.26,1.24a4.237,4.237,0,0,0,.86.47L27,38l-4,4a3,3,0,0,1-3,3H15l-.16.07a2.087,2.087,0,0,0-.46-.69l-.97-.97a4.827,4.827,0,0,1-.38-6.39,5.084,5.084,0,0,1,.38-.43L15,35l.84-1.39,1.73-2.9a2.054,2.054,0,0,1,1.23-.91l1.17-.29,4.91-1.23A1.478,1.478,0,0,0,26,26.84a1.477,1.477,0,0,1,.72-1.27Z" style="fill:#ffc6c8"/><path d="M28.8,45.9,33,41h4l.04.03A4.909,4.909,0,0,0,36.11,43,5.371,5.371,0,0,0,36,44.06a4.9,4.9,0,0,0,1.45,3.49,4.736,4.736,0,0,0,1.6,1.07q.03.165.06.36L39,49a2.938,2.938,0,0,1-3,3c-3.36,0-6.72-4.23-7.7-5.59A4.825,4.825,0,0,0,28.8,45.9Z" style="fill:#ff999c"/><path d="M55.7,46.97a5.6,5.6,0,0,1-.48,1.08L55,48l-2.08-2.77A4.009,4.009,0,0,0,50.5,43.7l-3.11-.62L47,43.02V43a7.241,7.241,0,0,0-6.47-4H40l2.73-1.37A6.108,6.108,0,0,1,45.42,37h2.86a5.992,5.992,0,0,1,3.6,1.2C53.64,39.51,56,41.86,56,45A6.225,6.225,0,0,1,55.7,46.97Z" style="fill:#ffd9da"/><path d="M33,41l-4.2,4.9a4.825,4.825,0,0,1-.5.51A5.971,5.971,0,0,1,24.24,48H17.12a2.133,2.133,0,0,1-1.5-.62,1.938,1.938,0,0,1-.36-.49L15,45.88a2.206,2.206,0,0,0-.16-.81L15,45h5a3,3,0,0,0,3-3l4-4,.12-.3a4.162,4.162,0,0,0,4.25-.7,4.571,4.571,0,0,0,1.59-3.01L33,34a12.7,12.7,0,0,1,4.39-.94C39,33.54,39,37,39,37l1,2-1.27.63a4.9,4.9,0,0,0-1.69,1.4L37,41Z" style="fill:#ffa6a9"/><path d="M40.53,39A7.241,7.241,0,0,1,47,43v.02c-.13-.01-.26-.02-.4-.02H36.11a5.033,5.033,0,0,1,2.62-3.37L40,39Z" style="fill:#ffc6c8"/><path d="M60,32a7.5,7.5,0,0,1,3,6c0,4.76-2.72,8.61-7.3,8.97A6.225,6.225,0,0,0,56,45c0-3.14-2.36-5.49-4.12-6.8a5.992,5.992,0,0,0-3.6-1.2H45.42a6.108,6.108,0,0,0-2.69.63L40,39l-1-2s0-3.46-1.61-3.94A12.7,12.7,0,0,0,33,34l-.04-.01A4.571,4.571,0,0,1,31.37,37a4.162,4.162,0,0,1-4.25.7,4.237,4.237,0,0,1-.86-.47L25,35.99l-1.06-1.33.32-.26A1.993,1.993,0,0,0,25,33l3.68-2.21a2.645,2.645,0,0,0,.84-.79H31a2.994,2.994,0,0,0,2.96-2.53A2.5,2.5,0,0,0,35.5,28H38a3.7,3.7,0,0,1,3,2h4a2.006,2.006,0,0,0,2-2,2.015,2.015,0,0,1,2-2,3,3,0,0,0,3-3V19l.04-.05C56.32,22.47,60,26.97,60,32Z" style="fill:#ffc5c5"/><path d="M1,34.05a8.136,8.136,0,0,1,1.08-4.03C4.79,25.35,12.27,14,21,14h1l.14.14A7.827,7.827,0,0,0,20,18l1.38,1.38A2.12,2.12,0,0,0,25,17.88v-.14a1.745,1.745,0,0,1,3.4-.55l.34,1.02A1.16,1.16,0,0,0,31,17.84V14a2.977,2.977,0,0,1,.93-2A4.273,4.273,0,0,1,35,11h1a11.476,11.476,0,0,1,1.86.14,13,13,0,0,1,4.18,1.33,58.567,58.567,0,0,1,10,6.48L52,19v4a3,3,0,0,1-3,3,2.015,2.015,0,0,0-2,2,2.006,2.006,0,0,1-2,2H41a3.7,3.7,0,0,0-3-2H35.5a2.5,2.5,0,0,1-1.54-.53,2.2,2.2,0,0,1-.23-.2A2.5,2.5,0,0,1,33,25.5a2.734,2.734,0,0,1,.05-.5A2.5,2.5,0,0,1,35,23.05V23H32.11a4.018,4.018,0,0,0-2.06.57l-3.33,2A1.477,1.477,0,0,0,26,26.84a1.478,1.478,0,0,1-1.12,1.44l-4.91,1.23-1.17.29a2.054,2.054,0,0,0-1.23.91l-1.73,2.9L15,35l-1.59,1.59a5.084,5.084,0,0,0-.38.43L13,37H11a2.006,2.006,0,0,1-2-2V33a2.015,2.015,0,0,0-2-2,2.006,2.006,0,0,0-2,2H3a2.006,2.006,0,0,0-2,2Z" style="fill:#ffd9da"/><path d="M50.6,43.21l-3.132-.624-.144-.022a7.683,7.683,0,0,0-6.381-4.036L40,39l-.444.22A.5.5,0,0,0,40,39.5h.53a6.694,6.694,0,0,1,5.594,3H36.251a5.08,5.08,0,0,0-.141.5c-.032.161-.056.323-.075.485a.5.5,0,0,0,.075.015H46.6c.127,0,.244.009.324.014l3.479.677a3.532,3.532,0,0,1,2.118,1.339L54.6,48.3a.487.487,0,0,0,.333.185c.1-.138.2-.283.286-.435.065-.113.121-.232.179-.351L53.32,44.931A4.475,4.475,0,0,0,50.6,43.21Z" style="fill:#ff8083"/><path d="M19.514,17.931A.422.422,0,0,0,19.5,18v2a4.485,4.485,0,0,0,.315,1.581A5.612,5.612,0,0,0,17,20.5c-1.474,0-2.725,1.025-3.643,2.948-1.746-.226-1.853-1.319-1.857-1.454a.5.5,0,0,0-1,.006,2.652,2.652,0,0,0,2.45,2.406,10.247,10.247,0,0,0-.45,1.588c0,.154-.109,1.506-2.5,1.506a.5.5,0,0,0,0,1c3.122,0,3.46-2.015,3.5-2.427a11.278,11.278,0,0,1,.613-1.885c.53-1.226,1.46-2.688,2.891-2.688,1.215,0,3.135,1.412,4.517,2.724l.084.084.011.011.018.018.016.017h0c.013,0,0,0,0,0a.5.5,0,0,0,.7-.712l-.006-.006,0,0-.01-.009-.009-.009-.045-.045c-.015-.017-.033-.035-.051-.052A6.181,6.181,0,0,1,20.5,20v-.793l.526.527a2.608,2.608,0,0,0,1.854.766,2.619,2.619,0,0,0,2.62-2.62v-.14a1.246,1.246,0,0,1,2.426-.392l.338,1.013A1.66,1.66,0,0,0,31.5,17.84V14a2.463,2.463,0,0,1,.771-1.638.5.5,0,0,0,.05-.664,3.162,3.162,0,0,0-.391.3h-.676a3.492,3.492,0,0,0-.754,2v3.84a.66.66,0,0,1-1.285.212l-.341-1.022a2.246,2.246,0,0,0-4.374.71v.14a1.631,1.631,0,0,1-.474,1.146,1.672,1.672,0,0,1-2.293,0l-1.179-1.179A7.225,7.225,0,0,1,22.485,14.5a.5.5,0,0,0,.026-.691c-.127.108-.254.216-.371.33L22,14h-.416a8.381,8.381,0,0,0-2.071,3.886C19.509,17.9,19.516,17.916,19.514,17.931Z" style="fill:#ff8083"/><path d="M29.18,46.225,33.229,41.5h3.486a3.305,3.305,0,0,1,.661-.82A.49.49,0,0,0,37,40.5H33.5V38a.5.5,0,0,0-1,0v2.815l-4.079,4.759a4.2,4.2,0,0,1-.442.452.5.5,0,0,0-.074.686c.131-.1.273-.189.395-.3.081.112.184.25.3.4.008-.006.017-.007.024-.014A5.4,5.4,0,0,0,29.18,46.225Z" style="fill:#ff8083"/><path d="M35.5,14.12v1.673l-1.854,1.853a.5.5,0,0,0,.708.708l2-2h0l.129-.129A2.456,2.456,0,0,1,38.23,15.5h.81a2.463,2.463,0,0,1,2.46,2.46V19a.5.5,0,0,0,1,0V17.96a3.464,3.464,0,0,0-3.46-3.46h-.81a3.436,3.436,0,0,0-1.73.477V14.12a2.191,2.191,0,0,1,.644-1.557l1.21-1.21a.468.468,0,0,0,.073-.11c-.189-.035-.377-.077-.567-.1-.209-.034-.422-.053-.633-.074l-.79.79A3.184,3.184,0,0,0,35.5,14.12Z" style="fill:#ff8083"/><path d="M51.5,19v4A2.5,2.5,0,0,1,49,25.5,2.513,2.513,0,0,0,46.5,28,1.5,1.5,0,0,1,45,29.5H43a.5.5,0,0,0,0,1h2A2.5,2.5,0,0,0,47.5,28,1.514,1.514,0,0,1,49,26.5a3.455,3.455,0,0,0,.728-.08,6.634,6.634,0,0,1,2.044,2.789A9.445,9.445,0,0,1,52.5,33a.5.5,0,0,0,1,0,10.815,10.815,0,0,0-.536-3.445c1.486.129,4.536.616,4.536,2.445a.5.5,0,0,0,1,0c0-2.921-4.452-3.4-5.948-3.477A8.107,8.107,0,0,0,50.779,26a3.546,3.546,0,0,0,.695-.525A3.477,3.477,0,0,0,52.5,23V19.339c-.153-.13-.3-.262-.46-.389-.128-.105-.259-.2-.388-.307A.5.5,0,0,0,51.5,19Z" style="fill:#ff8083"/><path d="M15.744,46.766l-.245-.953a2.781,2.781,0,0,0-.037-.313H20a3.5,3.5,0,0,0,3.391-2.638l2.332,1.554A.494.494,0,0,0,26,44.5a.5.5,0,0,0,.277-.916l-2.493-1.662,3.57-3.568c.016-.017.022-.038.036-.055a4.61,4.61,0,0,0,1.269.2,4.7,4.7,0,0,0,3.031-1.116,5,5,0,0,0,1.7-3.008,13.428,13.428,0,0,1,3.912-.8c.969.376,1.2,2.644,1.2,3.429a.5.5,0,0,0,1,0,7.464,7.464,0,0,0-.825-3.494c.109,0,.213-.006.325-.006a13.659,13.659,0,0,1,3.879.485A14.66,14.66,0,0,0,47,34.5c3.46,0,3.5-2.475,3.5-2.5a.5.5,0,0,0-.493-.5.549.549,0,0,0-.507.491c0,.154-.109,1.506-2.5,1.506a13.659,13.659,0,0,1-3.879-.485A14.66,14.66,0,0,0,39,32.5c-.594,0-1.149.021-1.646.062a15.768,15.768,0,0,0-3.866.712,5.263,5.263,0,0,0-.231-1.425.5.5,0,1,0-.953.3,4.265,4.265,0,0,1,.2,1.279,3.106,3.106,0,0,1-.037.505,4.049,4.049,0,0,1-1.415,2.683,3.666,3.666,0,0,1-3.742.618,4.2,4.2,0,0,1-.7-.362l-1.259-1.24a.5.5,0,0,0-.7.713l1.324,1.292a4.864,4.864,0,0,0,.419.262l-3.746,3.745c-.012.013-.017.029-.028.043s-.025.02-.034.034a.407.407,0,0,0-.018.044.525.525,0,0,0-.038.092.453.453,0,0,0-.019.1c0,.015-.009.029-.009.045A2.5,2.5,0,0,1,20,44.5H15.1a2.661,2.661,0,0,0-.369-.474l-.969-.969a4.326,4.326,0,0,1-.343-5.724,4.293,4.293,0,0,1,.343-.39l1.59-1.589a.564.564,0,0,0,.074-.095L18,30.974a1.56,1.56,0,0,1,.925-.689L25,28.766a1.97,1.97,0,0,0,1.5-1.926A.973.973,0,0,1,26.978,26l3.328-2a3.524,3.524,0,0,1,1.8-.5h1.163a2.987,2.987,0,0,0-.64,1.144l-1.7,1.132A3.248,3.248,0,0,0,29.5,28.46a2.205,2.205,0,0,1-.393,1.257,2.146,2.146,0,0,1-.685.644L25.4,32.176a2.493,2.493,0,0,0-.628-1.11l-.419-.42a.5.5,0,0,0-.708.708l.42.419a1.53,1.53,0,0,1,.436,1.188,1.5,1.5,0,0,1-.558,1.051l-3.021,2.41A2.486,2.486,0,0,0,19,35.5H17a.5.5,0,0,0,0,1h2A1.5,1.5,0,0,1,20.5,38v3a.5.5,0,0,0,1,0V38a2.442,2.442,0,0,0-.105-.676l3.177-2.533a2.488,2.488,0,0,0,.876-1.477l3.486-2.093a3.113,3.113,0,0,0,.812-.721H31a3.518,3.518,0,0,0,3.27-2.274,3.007,3.007,0,0,0,1.23.274H38a3.227,3.227,0,0,1,2.554,1.725.5.5,0,0,0,.893-.449,4.9,4.9,0,0,0-1.572-1.7,4.375,4.375,0,0,0,1.7-1.421l3.68-5.15H48a.5.5,0,0,0,0-1H45.5V18a.5.5,0,0,0-1,0v2.839l-3.738,5.232A3.394,3.394,0,0,1,37.99,27.5H35.5a2.008,2.008,0,0,1-1.24-.43,1.707,1.707,0,0,1-.176-.153A1.989,1.989,0,0,1,33.5,25.5a2.213,2.213,0,0,1,.04-.4,1.991,1.991,0,0,1,1.552-1.558,2.467,2.467,0,0,1,.5-.042,1.912,1.912,0,0,0,1.91-1.91.924.924,0,0,1,.264-.647l1.59-1.589a.5.5,0,0,0-.708-.708l-1.589,1.591A1.925,1.925,0,0,0,36.5,21.59a.934.934,0,0,1-1,.91,3.121,3.121,0,0,0-.334.033A.505.505,0,0,0,35,22.5H32.11a4.531,4.531,0,0,0-2.318.641l-3.329,2a1.963,1.963,0,0,0-.963,1.7.975.975,0,0,1-.741.955l-4.386,1.1a7.858,7.858,0,0,0-3.1-4.308.5.5,0,1,0-.552.834A6.907,6.907,0,0,1,19.4,29.134l-.727.181a2.543,2.543,0,0,0-1.535,1.139l-1.3,2.168A4.554,4.554,0,0,0,12,30.5a.5.5,0,0,0,0,1,3.732,3.732,0,0,1,3.264,2.087l-.66,1.1-1.546,1.547c-.086.085-.158.176-.234.264H11A1.5,1.5,0,0,1,9.5,35V33A2.513,2.513,0,0,0,7,30.5a2.5,2.5,0,0,0-2.449,2H3a2.486,2.486,0,0,0-1.961.968c-.015.194-.039.386-.039.582V35.5a.5.5,0,0,0,.5-.5A1.5,1.5,0,0,1,3,33.5H4.5V35a4.8,4.8,0,0,0,2.276,4.447.5.5,0,0,0,.668-.221.5.5,0,0,0-.217-.672A3.841,3.841,0,0,1,5.5,35V33A1.5,1.5,0,0,1,7,31.5,1.513,1.513,0,0,1,8.5,33v2A2.5,2.5,0,0,0,11,37.5h1.129a5.333,5.333,0,0,0-.4,1.014A4.335,4.335,0,0,0,7.5,43a.5.5,0,0,0,.5.5H8a.5.5,0,0,0,.5-.5c0-.136.06-3.183,3.04-3.472-.014.157-.04.313-.04.471a5.357,5.357,0,0,0,1.557,3.764l.969.969a1.566,1.566,0,0,1,.35.523,1.7,1.7,0,0,1,.124.624.469.469,0,0,0,.016.124l.256,1H15l.26-.11a1.878,1.878,0,0,0,.287.406A.5.5,0,0,0,15.744,46.766ZM33.4,27.646A2.5,2.5,0,0,1,31,29.5h-.679a3.179,3.179,0,0,0,.179-1.04,2.246,2.246,0,0,1,.986-1.854l1.053-.7a2.975,2.975,0,0,0,.837,1.717C33.384,27.631,33.394,27.638,33.4,27.646Z" style="fill:#ff8083"/><path d="M58,33.5h0a.5.5,0,0,0-.5.5c0,.025-.025,2.5-1.5,2.5h-.013a.5.5,0,0,0,.008,1c.159,0,1.505.115,1.505,2.5a.5.5,0,0,0,1,0,3.534,3.534,0,0,0-1.146-2.977A4.172,4.172,0,0,0,58.5,34,.5.5,0,0,0,58,33.5Z" style="fill:#ff8083"/><path d="M36.158,48.526C33.541,47.653,33.5,44.036,33.5,44a.5.5,0,0,0-.5-.5h0a.5.5,0,0,0-.5.5c0,.178.038,4.373,3.342,5.474A.484.484,0,0,0,36,49.5a.5.5,0,0,0,.158-.974Z" style="fill:#ff8083"/><path d="M27.307,18.439a1.1,1.1,0,0,0-1.344.251,1.548,1.548,0,0,0-.211.7,2.068,2.068,0,0,1-.706,1.6c-.512.308-1.273.132-1.664.586a.948.948,0,0,0-.03,1.076,1.542,1.542,0,0,0,1.707.7c.755-.152,1.166-.858,1.681-1.374a1.038,1.038,0,0,1,.439-.324.9.9,0,0,1,.575.078,4.8,4.8,0,0,0,1.794.656c.859-.016,1.512-.513,1.261-1.441a1.3,1.3,0,0,0-.247-.5c-.464-.55-1.146-.234-1.714-.6C28.252,19.463,27.977,18.746,27.307,18.439Z" style="fill:#ffedee"/><path d="M37.443,16.118a1.481,1.481,0,0,0-.832,1.185.351.351,0,0,0,.047.221.385.385,0,0,0,.185.121c.646.248,1.375.207,2.022.454a4.155,4.155,0,0,0,1.521.545.517.517,0,0,0,.278-.076.67.67,0,0,0,.21-.354,1.672,1.672,0,0,0,.009-1.517A2.965,2.965,0,0,0,37.443,16.118Z" style="fill:#ffedee"/><path d="M39.04,22.9q-.079.258-.154.52a1.385,1.385,0,0,1-1.01,1.162,11.636,11.636,0,0,0-1.156.535c-.339.18-.7.425-.761.8a.856.856,0,0,0,.474.829,3.047,3.047,0,0,0,2.744-.364,8.015,8.015,0,0,0,1.5-1.351,11.876,11.876,0,0,0,1.8-2.308,2.963,2.963,0,0,0,.415-1.26,1.453,1.453,0,0,0-.474-1.2,1.787,1.787,0,0,0-2.094.147,2.887,2.887,0,0,0-.6.815A9.324,9.324,0,0,0,39.04,22.9Z" style="fill:#ffedee"/><path d="M47.714,38a1.333,1.333,0,0,0-.458.058c-.507.182-.657.814-.731,1.348a.579.579,0,0,0,.037.389.551.551,0,0,0,.131.133,33.911,33.911,0,0,0,4.941,3.111c.628.346,1.427.689,2.018.283a1.372,1.372,0,0,0,.523-.974,2.955,2.955,0,0,0-.893-2.34A7.628,7.628,0,0,0,47.714,38Z" style="fill:#ffedee"/><path d="M28.756,34.469c-.286.394-1.033.946-.648,1.5.9,1.3,2.979-.074,3.494-1.022a3.893,3.893,0,0,0,.36-1.325,2.232,2.232,0,0,0,.03-.559,2.317,2.317,0,0,0-.577-1.105,1.082,1.082,0,0,0-1.766,0C29.1,32.69,29.3,33.726,28.756,34.469Z" style="fill:#ffdedf"/><path d="M19.383,37.076c-.79-.571-1.722-.328-2.621-.335-.567,0-1.49.134-1.616.832a1.014,1.014,0,0,0,.4.89c.254.225.564.378.828.592a19.074,19.074,0,0,1,1.4,1.71,1,1,0,0,0,1.446.2,1.98,1.98,0,0,0,.607-.563,2.469,2.469,0,0,0,.331-1.192,3.039,3.039,0,0,0-.115-1.26A1.87,1.87,0,0,0,19.383,37.076Z" style="fill:#ffdedf"/><path d="M22.418,30.957a2.035,2.035,0,0,0-.833-.6,1.923,1.923,0,0,0-.689-.051,7.245,7.245,0,0,0-1.2.177,2.11,2.11,0,0,0-.659.248,2.475,2.475,0,0,0-.556.549c-.313.381-.625.762-.92,1.157a1.078,1.078,0,0,0-.3.941.75.75,0,0,0,.8.421,2.172,2.172,0,0,0,.886-.383c.311-.193.628-.379.934-.58.247-.163.386-.119.625.062.39.295.638.792,1.124.953.754.25,1.471-.641,1.468-1.334A2.456,2.456,0,0,0,22.418,30.957Z" style="fill:#ffdedf"/><path d="M48.932,22.372c-.9.309-1.937-.059-2.831.271a1.944,1.944,0,0,0-1.207,1.4,1.106,1.106,0,0,0,0,.518,1.053,1.053,0,0,0,.661.654,3.061,3.061,0,0,0,1.129.139,7.88,7.88,0,0,0,2.251-.262,3.157,3.157,0,0,0,1.806-1.3c.286-.471.881-2.283.115-2.574-.317-.121-.682.145-.89.353A2.665,2.665,0,0,1,48.932,22.372Z" style="fill:#ffedee"/><path d="M14.327,16.5a5.805,5.805,0,0,0-2.491,2.734,1.312,1.312,0,0,0-.106.906,1.109,1.109,0,0,0,1.26.588,6.345,6.345,0,0,0,1.4-.569c.885-.382,1.871-.46,2.786-.763a2.781,2.781,0,0,0,2.009-1.886,1.934,1.934,0,0,0-1.48-2.133A6.581,6.581,0,0,0,14.327,16.5Z" style="fill:#ffedee"/></g></svg>
